<svg width="33" height="32" viewBox="0 0 33 32" fill="none" xmlns="http://www.w3.org/2000/svg">
<path d="M16.959 30.4614C24.691 30.4614 30.959 24.1934 30.959 16.4614C30.959 8.72944 24.691 2.46143 16.959 2.46143C9.227 2.46143 2.95898 8.72944 2.95898 16.4614C2.95898 24.1934 9.227 30.4614 16.959 30.4614Z" fill="#B9BCB6"/>
<path fill-rule="evenodd" clip-rule="evenodd" d="M9.0329 15.7363C12.9441 14.0322 15.5522 12.9088 16.8572 12.366C20.5831 10.8163 21.3574 10.5471 21.862 10.5382C21.973 10.5362 22.2211 10.5637 22.3819 10.6942C22.5176 10.8043 22.555 10.9531 22.5728 11.0575C22.5907 11.1619 22.613 11.3998 22.5953 11.5857C22.3934 13.7072 21.5197 18.8555 21.0752 21.2316C20.8872 22.237 20.5168 22.5741 20.1583 22.6071C19.3792 22.6788 18.7876 22.0922 18.0329 21.5975C16.8521 20.8235 16.185 20.3416 15.0388 19.5863C13.7141 18.7134 14.5728 18.2336 15.3278 17.4495C15.5253 17.2443 18.9582 14.1219 19.0246 13.8386C19.0329 13.8032 19.0407 13.6711 18.9622 13.6014C18.8838 13.5317 18.768 13.5555 18.6844 13.5745C18.566 13.6014 16.6796 14.8482 13.0252 17.315C12.4897 17.6827 12.0047 17.8618 11.5702 17.8525C11.0912 17.8421 10.1697 17.5816 9.48464 17.3589C8.64442 17.0858 7.97663 16.9414 8.03478 16.4775C8.06507 16.2359 8.39777 15.9889 9.0329 15.7363Z" fill="#1B270C"/>
</svg>
