<svg width="24" height="18" viewBox="0 0 24 18" fill="none" xmlns="http://www.w3.org/2000/svg">
<path d="M22.7333 8H1.26667C0.567106 8 0 8.42533 0 8.95V9.05C0 9.57467 0.567106 10 1.26667 10H22.7333C23.4329 10 24 9.57467 24 9.05V8.95C24 8.42533 23.4329 8 22.7333 8Z" fill="#000B33"/>
<path d="M22.7333 15.5H1.26667C0.567106 15.5 0 15.9253 0 16.45V16.55C0 17.0747 0.567106 17.5 1.26667 17.5H22.7333C23.4329 17.5 24 17.0747 24 16.55V16.45C24 15.9253 23.4329 15.5 22.7333 15.5Z" fill="#000B33"/>
<path d="M22.7333 0.499756H1.26667C0.567106 0.499756 0 0.925085 0 1.44976V1.54976C0 2.07443 0.567106 2.49976 1.26667 2.49976H22.7333C23.4329 2.49976 24 2.07443 24 1.54976V1.44976C24 0.925085 23.4329 0.499756 22.7333 0.499756Z" fill="#000B33"/>
</svg>
