<svg width="141" height="50" viewBox="0 0 141 50" fill="none" xmlns="http://www.w3.org/2000/svg">
<rect x="0.5" width="140" height="50" rx="4" fill="black"/>
<path d="M47.42 18.18H49.26V19.62C48.79 19.98 48.14 20.19 47.56 20.19C46.18 20.19 45.02 18.99 45.02 17.56C45.02 16.14 46.18 14.94 47.56 14.94C48.27 14.94 49.08 15.26 49.55 15.77L50.26 15.09C49.61 14.42 48.53 14.01 47.56 14.01C45.63 14.01 43.98 15.63 43.98 17.56C43.98 19.49 45.63 21.12 47.56 21.12C48.53 21.12 49.61 20.7 50.26 20.04V17.3H47.42V18.18ZM54.0314 20.24C53.1414 20.24 52.5114 19.62 52.3814 18.76H56.4514C56.4514 16.91 55.5414 15.71 53.9614 15.71C52.5314 15.71 51.3814 16.85 51.3814 18.4C51.3814 19.99 52.6014 21.12 54.0414 21.12C54.7714 21.12 55.6714 20.81 56.1314 20.32L55.5114 19.68C55.2014 20 54.5714 20.24 54.0314 20.24ZM54.0014 16.59C54.8914 16.59 55.3814 17.17 55.4914 17.97H52.3914C52.5514 17.13 53.2014 16.59 54.0014 16.59ZM60.0189 20.07C59.9089 20.18 59.7089 20.26 59.4889 20.26C59.1989 20.26 58.9589 20 58.9589 19.64V16.67H60.1789V15.83H58.9589V14.41H57.9889V15.83H57.2089V16.67H57.9889V19.71C57.9889 20.54 58.5489 21.12 59.3489 21.12C59.7189 21.12 60.0989 20.98 60.3789 20.75L60.0189 20.07ZM64.7393 14.97C65.0593 14.97 65.3293 14.69 65.3293 14.37C65.3293 14.06 65.0593 13.78 64.7393 13.78C64.3993 13.78 64.1393 14.06 64.1393 14.37C64.1393 14.69 64.3993 14.97 64.7393 14.97ZM64.2393 21H65.2293V15.83H64.2393V21ZM69.0814 20.07C68.9714 20.18 68.7714 20.26 68.5514 20.26C68.2614 20.26 68.0214 20 68.0214 19.64V16.67H69.2414V15.83H68.0214V14.41H67.0514V15.83H66.2714V16.67H67.0514V19.71C67.0514 20.54 67.6114 21.12 68.4114 21.12C68.7814 21.12 69.1614 20.98 69.4414 20.75L69.0814 20.07ZM76.6418 21.12C78.5718 21.12 80.1918 19.49 80.1918 17.56C80.1918 15.63 78.5718 14.01 76.6418 14.01C74.7118 14.01 73.0718 15.63 73.0718 17.56C73.0718 19.49 74.7118 21.12 76.6418 21.12ZM76.6418 20.19C75.2718 20.19 74.1118 18.99 74.1118 17.56C74.1118 16.14 75.2718 14.94 76.6418 14.94C78.0118 14.94 79.1618 16.14 79.1618 17.56C79.1618 18.99 78.0118 20.19 76.6418 20.19ZM84.0277 15.71C83.3277 15.71 82.6977 16.07 82.3877 16.58V15.83H81.3977V21H82.3877V17.65C82.4677 17.04 83.0877 16.57 83.8077 16.57C84.5077 16.57 84.9977 17.11 84.9977 17.88V21H85.9677V17.71C85.9677 16.54 85.1677 15.71 84.0277 15.71Z" fill="white"/>
<path d="M48.862 30.206H51.102V31.676C50.556 32.068 49.884 32.292 49.226 32.292C47.588 32.292 46.202 30.864 46.202 29.184C46.202 27.518 47.588 26.09 49.226 26.09C50.108 26.09 51.046 26.51 51.62 27.168L53.118 25.824C52.152 24.816 50.668 24.214 49.226 24.214C46.44 24.214 44.074 26.482 44.074 29.184C44.074 31.886 46.44 34.168 49.226 34.168C50.668 34.168 52.152 33.566 53.118 32.558V28.596H48.862V30.206ZM58.3563 34.168C60.4983 34.168 62.2903 32.432 62.2903 30.374C62.2903 28.316 60.4983 26.594 58.3563 26.594C56.2003 26.594 54.3943 28.316 54.3943 30.374C54.3943 32.432 56.2003 34.168 58.3563 34.168ZM58.3563 32.446C57.2643 32.446 56.3543 31.494 56.3543 30.374C56.3543 29.254 57.2643 28.316 58.3563 28.316C59.4343 28.316 60.3443 29.254 60.3443 30.374C60.3443 31.494 59.4343 32.446 58.3563 32.446ZM67.2293 34.168C69.3713 34.168 71.1633 32.432 71.1633 30.374C71.1633 28.316 69.3713 26.594 67.2293 26.594C65.0733 26.594 63.2673 28.316 63.2673 30.374C63.2673 32.432 65.0733 34.168 67.2293 34.168ZM67.2293 32.446C66.1373 32.446 65.2273 31.494 65.2273 30.374C65.2273 29.254 66.1373 28.316 67.2293 28.316C68.3073 28.316 69.2173 29.254 69.2173 30.374C69.2173 31.494 68.3073 32.446 67.2293 32.446ZM77.7824 26.762V27.742C77.2924 27.056 76.3684 26.594 75.3884 26.594C73.5684 26.594 72.1824 28.008 72.1824 30.024C72.1824 32.04 73.5684 33.468 75.3884 33.468C76.3404 33.468 77.2084 33.048 77.7824 32.348V33.146C77.7824 34.084 76.9424 34.686 75.6264 34.686C74.7864 34.686 73.9464 34.42 73.4704 34L72.7564 35.442C73.4704 36.002 74.6744 36.408 75.9484 36.408C78.2304 36.408 79.8404 35.092 79.8404 33.23V26.762H77.7824ZM76.0324 31.746C75.0104 31.746 74.2824 31.032 74.2824 30.024C74.2824 29.016 75.0104 28.316 76.0324 28.316C77.0544 28.316 77.7824 29.016 77.7824 30.024C77.7824 31.032 77.0544 31.746 76.0324 31.746ZM81.6382 34H83.6822V24.214H81.6382V34ZM88.8823 32.362C88.0283 32.362 87.3983 31.83 87.1603 31.046H92.3823C92.3823 28.316 91.0523 26.594 88.7843 26.594C86.6703 26.594 85.0603 28.176 85.0603 30.36C85.0603 32.586 86.7403 34.168 88.8963 34.168C89.9603 34.168 91.2063 33.72 91.8503 33.048L90.5483 31.718C90.1563 32.096 89.4563 32.362 88.8823 32.362ZM88.8683 28.4C89.6943 28.4 90.2263 28.862 90.4223 29.576H87.1883C87.4543 28.848 88.0983 28.4 88.8683 28.4ZM97.7313 34H99.7893V30.878H102.057C104.143 30.878 105.683 29.534 105.683 27.63C105.683 25.726 104.143 24.382 102.057 24.382H97.7313V34ZM99.7893 28.988V26.272H101.833C102.855 26.272 103.555 26.804 103.555 27.63C103.555 28.456 102.855 28.988 101.833 28.988H99.7893ZM106.917 34H108.961V24.214H106.917V34ZM113.98 26.594C112.972 26.594 111.978 26.874 110.956 27.392L111.642 28.75C112.216 28.456 112.846 28.232 113.518 28.232C114.708 28.232 115.184 28.904 115.184 29.674V29.814C114.568 29.576 113.924 29.45 113.336 29.45C111.656 29.45 110.326 30.43 110.326 31.858C110.326 33.244 111.516 34.168 113.056 34.168C113.84 34.168 114.666 33.86 115.184 33.272V34H117.158V29.674C117.158 27.784 115.87 26.594 113.98 26.594ZM113.518 32.754C112.818 32.754 112.3 32.39 112.3 31.802C112.3 31.214 112.888 30.78 113.63 30.78C114.19 30.78 114.722 30.878 115.184 31.046V31.718C115.044 32.39 114.302 32.754 113.518 32.754ZM120.532 36.52C121.666 36.52 122.59 35.778 123.136 34.364L126.104 26.762H124.018L122.212 31.844L120.308 26.762H118.194L121.204 34.07L120.952 34.602C120.798 34.868 120.49 34.994 120.098 34.994C119.86 34.994 119.496 34.868 119.146 34.672L118.712 36.072C119.202 36.338 119.93 36.52 120.532 36.52Z" fill="white"/>
<g filter="url(#filter0_ii_2027_1480)">
<path d="M13.963 12.3971C13.672 12.7051 13.5 13.1831 13.5 13.8021V35.9181C13.5 36.5381 13.672 37.0151 13.963 37.3231L14.037 37.3951L26.426 25.0061V24.8601V24.7141L14.037 12.3241L13.963 12.3971Z" fill="url(#paint0_linear_2027_1480)"/>
<path d="M30.5548 29.137L26.4258 25.006V24.86V24.714L30.5558 20.584L30.6488 20.637L35.5418 23.417C36.9388 24.211 36.9388 25.51 35.5418 26.305L30.6488 29.085L30.5548 29.137Z" fill="url(#paint1_linear_2027_1480)"/>
<g filter="url(#filter1_i_2027_1480)">
<path d="M30.6508 29.0844L26.4268 24.8604L13.9648 37.3234C14.4248 37.8114 15.1858 37.8714 16.0428 37.3854L30.6508 29.0844Z" fill="url(#paint2_linear_2027_1480)"/>
</g>
<path d="M30.6508 20.6361L16.0428 12.3361C15.1858 11.8491 14.4248 11.9101 13.9648 12.3981L26.4278 24.8611L30.6508 20.6361Z" fill="url(#paint3_linear_2027_1480)"/>
</g>
<defs>
<filter id="filter0_ii_2027_1480" x="13.5" y="12" width="23.0895" height="25.7211" filterUnits="userSpaceOnUse" color-interpolation-filters="sRGB">
<feFlood flood-opacity="0" result="BackgroundImageFix"/>
<feBlend mode="normal" in="SourceGraphic" in2="BackgroundImageFix" result="shape"/>
<feColorMatrix in="SourceAlpha" type="matrix" values="0 0 0 0 0 0 0 0 0 0 0 0 0 0 0 0 0 0 127 0" result="hardAlpha"/>
<feOffset dy="-0.15"/>
<feComposite in2="hardAlpha" operator="arithmetic" k2="-1" k3="1"/>
<feColorMatrix type="matrix" values="0 0 0 0 0 0 0 0 0 0 0 0 0 0 0 0 0 0 0.12 0"/>
<feBlend mode="normal" in2="shape" result="effect1_innerShadow_2027_1480"/>
<feColorMatrix in="SourceAlpha" type="matrix" values="0 0 0 0 0 0 0 0 0 0 0 0 0 0 0 0 0 0 127 0" result="hardAlpha"/>
<feOffset dy="0.15"/>
<feComposite in2="hardAlpha" operator="arithmetic" k2="-1" k3="1"/>
<feColorMatrix type="matrix" values="0 0 0 0 1 0 0 0 0 1 0 0 0 0 1 0 0 0 0.25 0"/>
<feBlend mode="normal" in2="effect1_innerShadow_2027_1480" result="effect2_innerShadow_2027_1480"/>
</filter>
<filter id="filter1_i_2027_1480" x="13.9648" y="24.8604" width="16.686" height="12.8607" filterUnits="userSpaceOnUse" color-interpolation-filters="sRGB">
<feFlood flood-opacity="0" result="BackgroundImageFix"/>
<feBlend mode="normal" in="SourceGraphic" in2="BackgroundImageFix" result="shape"/>
<feColorMatrix in="SourceAlpha" type="matrix" values="0 0 0 0 0 0 0 0 0 0 0 0 0 0 0 0 0 0 127 0" result="hardAlpha"/>
<feOffset dy="-0.15"/>
<feComposite in2="hardAlpha" operator="arithmetic" k2="-1" k3="1"/>
<feColorMatrix type="matrix" values="0 0 0 0 0 0 0 0 0 0 0 0 0 0 0 0 0 0 0.08 0"/>
<feBlend mode="normal" in2="shape" result="effect1_innerShadow_2027_1480"/>
</filter>
<linearGradient id="paint0_linear_2027_1480" x1="25.3278" y1="13.5681" x2="8.5458" y2="30.3501" gradientUnits="userSpaceOnUse">
<stop stop-color="#00A0FF"/>
<stop offset="0.0066" stop-color="#00A1FF"/>
<stop offset="0.2601" stop-color="#00BEFF"/>
<stop offset="0.5122" stop-color="#00D2FF"/>
<stop offset="0.7604" stop-color="#00DFFF"/>
<stop offset="1" stop-color="#00E3FF"/>
</linearGradient>
<linearGradient id="paint1_linear_2027_1480" x1="37.3603" y1="24.86" x2="13.1644" y2="24.86" gradientUnits="userSpaceOnUse">
<stop stop-color="#FFE000"/>
<stop offset="0.4087" stop-color="#FFBD00"/>
<stop offset="0.7754" stop-color="#FFA500"/>
<stop offset="1" stop-color="#FF9C00"/>
</linearGradient>
<linearGradient id="paint2_linear_2027_1480" x1="28.3569" y1="27.1543" x2="5.59845" y2="49.9128" gradientUnits="userSpaceOnUse">
<stop stop-color="#FF3A44"/>
<stop offset="1" stop-color="#C31162"/>
</linearGradient>
<linearGradient id="paint3_linear_2027_1480" x1="10.8262" y1="5.03588" x2="20.9885" y2="15.1982" gradientUnits="userSpaceOnUse">
<stop stop-color="#32A071"/>
<stop offset="0.0685" stop-color="#2DA771"/>
<stop offset="0.4762" stop-color="#15CF74"/>
<stop offset="0.8009" stop-color="#06E775"/>
<stop offset="1" stop-color="#00F076"/>
</linearGradient>
</defs>
</svg>
