<svg width="141" height="50" viewBox="0 0 141 50" fill="none" xmlns="http://www.w3.org/2000/svg">
<rect x="0.5" width="140" height="50" rx="4" fill="black"/>
<path d="M31.2973 25.5804C31.319 23.8994 32.2217 22.3088 33.6539 21.4283C32.7504 20.138 31.2371 19.3199 29.6627 19.2706C27.9835 19.0944 26.3555 20.2754 25.4998 20.2754C24.6275 20.2754 23.31 19.2881 21.8913 19.3173C20.0421 19.3771 18.3181 20.4284 17.4184 22.0452C15.4844 25.3936 16.927 30.3146 18.7796 33.0213C19.7065 34.3466 20.7898 35.8271 22.2072 35.7746C23.5943 35.717 24.1123 34.8901 25.7866 34.8901C27.4454 34.8901 27.9314 35.7746 29.3776 35.7412C30.866 35.717 31.8038 34.4099 32.6981 33.072C33.3641 32.1277 33.8766 31.084 34.2166 29.9795C32.4674 29.2397 31.2994 27.4795 31.2973 25.5804Z" fill="white"/>
<path d="M28.5656 17.4906C29.3772 16.5164 29.777 15.2642 29.6802 14C28.4403 14.1302 27.2951 14.7228 26.4726 15.6596C25.6683 16.5749 25.2497 17.8051 25.3289 19.021C26.5692 19.0338 27.7885 18.4573 28.5656 17.4906Z" fill="white"/>
<path d="M42.37 21H44.74C46.96 21 48.54 19.57 48.54 17.56C48.54 15.55 46.96 14.13 44.74 14.13H42.37V21ZM43.38 20.08V15.05H44.8C46.39 15.05 47.5 16.09 47.5 17.56C47.5 19.04 46.39 20.08 44.8 20.08H43.38ZM52.2872 21.12C53.7572 21.12 54.9972 19.88 54.9972 18.41C54.9972 16.94 53.7572 15.71 52.2872 15.71C50.8072 15.71 49.5572 16.94 49.5572 18.41C49.5572 19.88 50.8072 21.12 52.2872 21.12ZM52.2872 20.26C51.3372 20.26 50.5472 19.42 50.5472 18.41C50.5472 17.41 51.3372 16.57 52.2872 16.57C53.2172 16.57 54.0072 17.41 54.0072 18.41C54.0072 19.42 53.2172 20.26 52.2872 20.26ZM57.2507 21H58.1607L59.4107 17.16L60.6507 21H61.5607L63.3007 15.83H62.2907L61.1107 19.68L59.8307 15.83H58.9907L57.7107 19.68L56.5207 15.83H55.5107L57.2507 21ZM66.9301 15.71C66.2301 15.71 65.6001 16.07 65.2901 16.58V15.83H64.3001V21H65.2901V17.65C65.3701 17.04 65.9901 16.57 66.7101 16.57C67.4101 16.57 67.9001 17.11 67.9001 17.88V21H68.8701V17.71C68.8701 16.54 68.0701 15.71 66.9301 15.71ZM70.2864 21H71.2664V14.01H70.2864V21ZM75.1583 21.12C76.6283 21.12 77.8683 19.88 77.8683 18.41C77.8683 16.94 76.6283 15.71 75.1583 15.71C73.6783 15.71 72.4283 16.94 72.4283 18.41C72.4283 19.88 73.6783 21.12 75.1583 21.12ZM75.1583 20.26C74.2083 20.26 73.4183 19.42 73.4183 18.41C73.4183 17.41 74.2083 16.57 75.1583 16.57C76.0883 16.57 76.8783 17.41 76.8783 18.41C76.8783 19.42 76.0883 20.26 75.1583 20.26ZM81.1966 15.71C80.6266 15.71 79.9766 15.86 79.2366 16.23L79.5966 16.96C80.0466 16.73 80.5466 16.53 81.0566 16.53C82.0866 16.53 82.3866 17.22 82.3866 17.87V18.03C81.8866 17.86 81.3366 17.75 80.8266 17.75C79.6866 17.75 78.7566 18.44 78.7566 19.47C78.7566 20.48 79.5666 21.12 80.6666 21.12C81.2966 21.12 82.0066 20.83 82.3866 20.29V21H83.3566V17.87C83.3566 16.59 82.5866 15.71 81.1966 15.71ZM80.8566 20.34C80.2066 20.34 79.7066 20 79.7066 19.44C79.7066 18.88 80.2866 18.49 80.9766 18.49C81.4866 18.49 81.9666 18.56 82.3866 18.69V19.38C82.2166 20.02 81.4966 20.34 80.8566 20.34ZM88.7684 14.01V16.72C88.3684 16.09 87.7284 15.71 86.9284 15.71C85.5684 15.71 84.5484 16.83 84.5484 18.41C84.5484 20 85.5684 21.12 86.9284 21.12C87.7284 21.12 88.3684 20.74 88.7684 20.1V21H89.7484V14.01H88.7684ZM87.1684 20.26C86.2184 20.26 85.5484 19.49 85.5484 18.41C85.5484 17.33 86.2184 16.57 87.1684 16.57C88.0984 16.57 88.7684 17.33 88.7684 18.41C88.7684 19.49 88.0984 20.26 87.1684 20.26ZM96.545 21.12C98.015 21.12 99.255 19.88 99.255 18.41C99.255 16.94 98.015 15.71 96.545 15.71C95.065 15.71 93.815 16.94 93.815 18.41C93.815 19.88 95.065 21.12 96.545 21.12ZM96.545 20.26C95.595 20.26 94.805 19.42 94.805 18.41C94.805 17.41 95.595 16.57 96.545 16.57C97.475 16.57 98.265 17.41 98.265 18.41C98.265 19.42 97.475 20.26 96.545 20.26ZM103.043 15.71C102.343 15.71 101.713 16.07 101.403 16.58V15.83H100.413V21H101.403V17.65C101.483 17.04 102.103 16.57 102.823 16.57C103.523 16.57 104.013 17.11 104.013 17.88V21H104.983V17.71C104.983 16.54 104.183 15.71 103.043 15.71ZM111.681 20.07C111.571 20.18 111.371 20.26 111.151 20.26C110.861 20.26 110.621 20 110.621 19.64V16.67H111.841V15.83H110.621V14.41H109.651V15.83H108.871V16.67H109.651V19.71C109.651 20.54 110.211 21.12 111.011 21.12C111.381 21.12 111.761 20.98 112.041 20.75L111.681 20.07ZM115.68 15.71C114.97 15.71 114.34 16.08 114.03 16.6V14.01H113.05V21H114.03V17.79C114.03 17.12 114.68 16.57 115.46 16.57C116.16 16.57 116.65 17.11 116.65 17.88V21H117.62V17.71C117.62 16.54 116.82 15.71 115.68 15.71ZM121.406 20.24C120.516 20.24 119.886 19.62 119.756 18.76H123.826C123.826 16.91 122.916 15.71 121.336 15.71C119.906 15.71 118.756 16.85 118.756 18.4C118.756 19.99 119.976 21.12 121.416 21.12C122.146 21.12 123.046 20.81 123.506 20.32L122.886 19.68C122.576 20 121.946 20.24 121.406 20.24ZM121.376 16.59C122.266 16.59 122.756 17.17 122.866 17.97H119.766C119.926 17.13 120.576 16.59 121.376 16.59Z" fill="white"/>
<path d="M49.508 34H51.832L47.912 24.382H45.602L41.682 34H43.992L44.608 32.488H48.892L49.508 34ZM45.322 30.738L46.75 27.224L48.178 30.738H45.322ZM57.3757 26.594C56.3677 26.594 55.5277 27.028 54.9537 27.77V26.762H52.9097V36.408H54.9537V32.978C55.5277 33.734 56.3677 34.168 57.3757 34.168C59.3077 34.168 60.7077 32.6 60.7077 30.374C60.7077 28.162 59.3077 26.594 57.3757 26.594ZM56.7877 32.446C55.7937 32.446 55.0657 31.718 54.9537 30.654V30.094C55.0657 29.044 55.7937 28.316 56.7877 28.316C57.9217 28.316 58.7197 29.17 58.7197 30.374C58.7197 31.592 57.9217 32.446 56.7877 32.446ZM66.6179 26.594C65.6099 26.594 64.7699 27.028 64.1959 27.77V26.762H62.1519V36.408H64.1959V32.978C64.7699 33.734 65.6099 34.168 66.6179 34.168C68.5499 34.168 69.9499 32.6 69.9499 30.374C69.9499 28.162 68.5499 26.594 66.6179 26.594ZM66.0299 32.446C65.0359 32.446 64.3079 31.718 64.1959 30.654V30.094C64.3079 29.044 65.0359 28.316 66.0299 28.316C67.1639 28.316 67.9619 29.17 67.9619 30.374C67.9619 31.592 67.1639 32.446 66.0299 32.446ZM79.0002 34.168C81.3522 34.168 82.7382 32.95 82.7382 31.116C82.7382 29.338 81.3662 28.722 79.2942 28.26C77.8102 27.924 77.2362 27.7 77.2362 27C77.2362 26.426 77.7682 25.964 78.6502 25.964C79.5742 25.964 80.5402 26.342 81.3942 27.028L82.4722 25.544C81.4922 24.704 80.2742 24.214 78.7062 24.214C76.6062 24.214 75.1502 25.432 75.1502 27.21C75.1502 29.072 76.5922 29.646 78.6222 30.108C80.0922 30.444 80.6522 30.654 80.6522 31.34C80.6522 31.942 80.1202 32.418 79.0842 32.418C77.8662 32.418 76.8302 31.942 75.9202 31.158L74.7302 32.572C75.8502 33.608 77.3342 34.168 79.0002 34.168ZM87.9716 32.208C87.8316 32.348 87.5516 32.446 87.2716 32.446C86.8936 32.446 86.5856 32.11 86.5856 31.634V28.414H88.1536V26.762H86.5856V24.774H84.6256V26.762H83.6316V28.414H84.6256V31.956C84.6256 33.258 85.5216 34.168 86.7956 34.168C87.3836 34.168 88.0416 33.916 88.4616 33.538L87.9716 32.208ZM93.2977 34.168C95.4397 34.168 97.2317 32.432 97.2317 30.374C97.2317 28.316 95.4397 26.594 93.2977 26.594C91.1417 26.594 89.3357 28.316 89.3357 30.374C89.3357 32.432 91.1417 34.168 93.2977 34.168ZM93.2977 32.446C92.2057 32.446 91.2957 31.494 91.2957 30.374C91.2957 29.254 92.2057 28.316 93.2977 28.316C94.3757 28.316 95.2857 29.254 95.2857 30.374C95.2857 31.494 94.3757 32.446 93.2977 32.446ZM100.659 28.106V26.762H98.6148V34H100.659V30.542C100.659 29.184 101.625 28.316 103.137 28.316V26.594C102.031 26.594 101.135 27.168 100.659 28.106ZM107.732 32.362C106.878 32.362 106.248 31.83 106.01 31.046H111.232C111.232 28.316 109.902 26.594 107.634 26.594C105.52 26.594 103.91 28.176 103.91 30.36C103.91 32.586 105.59 34.168 107.746 34.168C108.81 34.168 110.056 33.72 110.7 33.048L109.398 31.718C109.006 32.096 108.306 32.362 107.732 32.362ZM107.718 28.4C108.544 28.4 109.076 28.862 109.272 29.576H106.038C106.304 28.848 106.948 28.4 107.718 28.4Z" fill="white"/>
</svg>
